<svg width="272" height="141" viewBox="0 0 272 141" fill="none" xmlns="http://www.w3.org/2000/svg">
<path d="M7.62768 112.228C12.395 112.228 15.2554 109.48 15.2554 104.376V94.5609H12.0585V104.264C12.0585 107.853 10.4881 109.368 7.68377 109.368C4.87947 109.368 3.25298 107.853 3.25298 104.264V94.5609H0V104.376C0 109.48 2.86038 112.228 7.62768 112.228ZM31.9129 94.5609H24.7339V111.948H27.9869V106.9H31.9129C36.5119 106.9 39.3162 104.544 39.3162 100.73C39.3162 96.9165 36.4558 94.5609 31.9129 94.5609ZM31.7446 104.208H27.9869V97.3091H31.7446C34.605 97.3091 36.0632 98.5991 36.0632 100.786C36.0632 102.974 34.605 104.208 31.7446 104.208ZM50.5334 112.004H53.7864V97.3091H59.5632V94.5609H44.8126V97.3091H50.5895V112.004H50.5334ZM74.8747 112.228C80.2589 112.228 84.241 108.47 84.241 103.254C84.241 98.0943 80.2589 94.2805 74.8747 94.2805C69.4904 94.2805 65.5083 98.0943 65.5083 103.254C65.4523 108.414 69.4344 112.228 74.8747 112.228ZM74.8747 109.424C71.3413 109.424 68.7613 106.844 68.7613 103.31C68.7613 99.7769 71.3974 97.1969 74.8747 97.1969C78.352 97.1969 80.9881 99.7769 80.9881 103.31C80.9881 106.844 78.352 109.424 74.8747 109.424ZM104.881 94.5609V106.339L95.29 94.5609H92.6539V111.948H95.8508V100.169L105.442 111.948H108.078V94.5609H104.881ZM137.747 112.228C143.131 112.228 147.113 108.47 147.113 103.254C147.113 98.0943 143.131 94.2805 137.747 94.2805C132.363 94.2805 128.381 98.0943 128.381 103.254C128.325 108.414 132.307 112.228 137.747 112.228ZM137.747 109.424C134.214 109.424 131.634 106.844 131.634 103.31C131.634 99.7769 134.27 97.1969 137.747 97.1969C141.28 97.1969 143.86 99.7769 143.86 103.31C143.86 106.844 141.224 109.424 137.747 109.424ZM169.548 112.004L162.986 102.974L169.099 94.5609H165.566L161.191 100.73L156.76 94.5609H153.115L159.228 103.086L152.778 111.948H156.48L161.135 105.329L165.846 111.948H169.548V112.004ZM195.572 112.004V94.617H192.936L186.149 106.171L179.195 94.5609H176.558V111.948H179.643V100.562L185.364 109.985H186.822L192.543 100.45V112.004H195.572ZM213.351 112.228C218.735 112.228 222.717 108.47 222.717 103.254C222.717 98.0943 218.735 94.2805 213.351 94.2805C207.967 94.2805 203.984 98.0943 203.984 103.254C203.984 108.414 207.967 112.228 213.351 112.228ZM213.351 109.424C209.817 109.424 207.237 106.844 207.237 103.31C207.237 99.7769 209.873 97.1969 213.351 97.1969C216.884 97.1969 219.464 99.7769 219.464 103.31C219.464 106.844 216.884 109.424 213.351 109.424ZM239.263 112.228C244.647 112.228 248.629 108.47 248.629 103.254C248.629 98.0943 244.647 94.2805 239.263 94.2805C233.878 94.2805 229.896 98.0943 229.896 103.254C229.896 108.414 233.878 112.228 239.263 112.228ZM239.263 109.424C235.729 109.424 233.149 106.844 233.149 103.31C233.149 99.7769 235.785 97.1969 239.263 97.1969C242.74 97.1969 245.376 99.7769 245.376 103.31C245.376 106.844 242.796 109.424 239.263 109.424ZM271.905 112.004L267.922 106.283C270.278 105.385 271.624 103.422 271.624 100.786C271.624 96.9165 268.764 94.617 264.221 94.617H257.042V112.004H260.295V106.956H264.221C264.445 106.956 264.669 106.956 264.894 106.956L268.427 112.06H271.905V112.004ZM268.371 100.786C268.371 102.974 266.913 104.264 264.052 104.264H260.295V97.3091H264.052C266.913 97.3091 268.371 98.5991 268.371 100.786Z" fill="#384259"/>
<path d="M7.62768 112.228C12.395 112.228 15.2554 109.48 15.2554 104.376V94.5609H12.0585V104.264C12.0585 107.853 10.4881 109.368 7.68377 109.368C4.87947 109.368 3.25298 107.853 3.25298 104.264V94.5609H0V104.376C0 109.48 2.86038 112.228 7.62768 112.228ZM31.9129 94.5609H24.7339V111.948H27.9869V106.9H31.9129C36.5119 106.9 39.3162 104.544 39.3162 100.73C39.3162 96.9165 36.4558 94.5609 31.9129 94.5609ZM31.7446 104.208H27.9869V97.3091H31.7446C34.605 97.3091 36.0632 98.5991 36.0632 100.786C36.0632 102.974 34.605 104.208 31.7446 104.208ZM50.5334 112.004H53.7864V97.3091H59.5632V94.5609H44.8126V97.3091H50.5895V112.004H50.5334ZM74.8747 112.228C80.2589 112.228 84.241 108.47 84.241 103.254C84.241 98.0943 80.2589 94.2805 74.8747 94.2805C69.4904 94.2805 65.5083 98.0943 65.5083 103.254C65.4523 108.414 69.4344 112.228 74.8747 112.228ZM74.8747 109.424C71.3413 109.424 68.7613 106.844 68.7613 103.31C68.7613 99.7769 71.3974 97.1969 74.8747 97.1969C78.352 97.1969 80.9881 99.7769 80.9881 103.31C80.9881 106.844 78.352 109.424 74.8747 109.424ZM104.881 94.5609V106.339L95.29 94.5609H92.6539V111.948H95.8508V100.169L105.442 111.948H108.078V94.5609H104.881ZM137.747 112.228C143.131 112.228 147.113 108.47 147.113 103.254C147.113 98.0943 143.131 94.2805 137.747 94.2805C132.363 94.2805 128.381 98.0943 128.381 103.254C128.325 108.414 132.307 112.228 137.747 112.228ZM137.747 109.424C134.214 109.424 131.634 106.844 131.634 103.31C131.634 99.7769 134.27 97.1969 137.747 97.1969C141.28 97.1969 143.86 99.7769 143.86 103.31C143.86 106.844 141.224 109.424 137.747 109.424ZM169.548 112.004L162.986 102.974L169.099 94.5609H165.566L161.191 100.73L156.76 94.5609H153.115L159.228 103.086L152.778 111.948H156.48L161.135 105.329L165.846 111.948H169.548V112.004ZM195.572 112.004V94.617H192.936L186.149 106.171L179.195 94.5609H176.558V111.948H179.643V100.562L185.364 109.985H186.822L192.543 100.45V112.004H195.572ZM213.351 112.228C218.735 112.228 222.717 108.47 222.717 103.254C222.717 98.0943 218.735 94.2805 213.351 94.2805C207.967 94.2805 203.984 98.0943 203.984 103.254C203.984 108.414 207.967 112.228 213.351 112.228ZM213.351 109.424C209.817 109.424 207.237 106.844 207.237 103.31C207.237 99.7769 209.873 97.1969 213.351 97.1969C216.884 97.1969 219.464 99.7769 219.464 103.31C219.464 106.844 216.884 109.424 213.351 109.424ZM239.263 112.228C244.647 112.228 248.629 108.47 248.629 103.254C248.629 98.0943 244.647 94.2805 239.263 94.2805C233.878 94.2805 229.896 98.0943 229.896 103.254C229.896 108.414 233.878 112.228 239.263 112.228ZM239.263 109.424C235.729 109.424 233.149 106.844 233.149 103.31C233.149 99.7769 235.785 97.1969 239.263 97.1969C242.74 97.1969 245.376 99.7769 245.376 103.31C245.376 106.844 242.796 109.424 239.263 109.424ZM271.905 112.004L267.922 106.283C270.278 105.385 271.624 103.422 271.624 100.786C271.624 96.9165 268.764 94.617 264.221 94.617H257.042V112.004H260.295V106.956H264.221C264.445 106.956 264.669 106.956 264.894 106.956L268.427 112.06H271.905V112.004ZM268.371 100.786C268.371 102.974 266.913 104.264 264.052 104.264H260.295V97.3091H264.052C266.913 97.3091 268.371 98.5991 268.371 100.786Z" fill="#384259"/>
<path d="M64.6669 140.832H68.2564V139.822H66.9665L67.6395 138.196H71.3412L72.0142 139.822H70.7242V140.832H74.3698V139.822H73.2481L70.1633 132.251H67.1347V133.26H68.3686L65.7326 139.822H64.6108V140.832H64.6669ZM68.0321 137.242L69.4903 133.541L70.9486 137.242H68.0321ZM80.4271 140.832H84.4653V139.822H82.9509V137.691H84.3531C86.4283 137.691 87.7743 136.625 87.7743 134.999C87.7743 133.316 86.4283 132.307 84.3531 132.307H80.4832V133.316H81.7731V139.878H80.4832V140.832H80.4271ZM82.8949 133.316H84.297C85.8113 133.316 86.4283 134.101 86.4283 135.055C86.4283 136.008 85.8113 136.794 84.297 136.794H82.8949V133.316ZM93.0464 140.832H96.6359V139.822H95.3459L96.019 138.196H99.7206L100.394 139.822H99.1037V140.832H102.749V139.822H101.628L98.5428 132.251H95.5142V133.26H96.7481L94.112 139.822H92.9903V140.832H93.0464ZM96.4116 137.242L97.8698 133.541L99.328 137.242H96.4116ZM108.807 140.832H112.564V139.822H111.33V137.523H113.181L114.976 140.776H116.995V139.766H115.817L114.359 137.186C115.537 136.85 116.266 136.008 116.266 134.831C116.266 133.204 114.92 132.194 112.845 132.194H108.863V133.204H110.153V139.766H108.863V140.832H108.807ZM111.33 136.625V133.316H112.845C114.359 133.316 114.976 134.045 114.976 134.999C114.976 135.952 114.359 136.681 112.845 136.681H111.33V136.625ZM124.959 140.832H128.885V139.822H127.539V133.26H129.614V134.662H130.736V132.251H123.108V134.662H124.23V133.26H126.305V139.822H124.959V140.832ZM137.13 140.832H140.663V139.822H139.486L139.71 133.428L142.514 140.215H143.524L146.328 133.428L146.552 139.822H145.375V140.832H148.908V139.822H147.73L147.45 133.26H148.684V132.251H145.543L143.019 138.588L140.495 132.251H137.354V133.26H138.532L138.308 139.822H137.13V140.832ZM155.526 140.832H162.481V138.364H161.303V139.822H157.994V137.018H161.527V136.008H157.994V133.26H161.303V134.662H162.425V132.251H155.47V133.26H156.76V139.822H155.47V140.832H155.526ZM169.323 140.832H173.025V139.822H171.791V134.045L176.558 140.832H177.68V133.26H178.914V132.251H175.212V133.26H176.446V138.813L171.847 132.251H169.323V133.26H170.613V139.822H169.323V140.832ZM187.046 140.832H190.972V139.822H189.626V133.26H191.702V134.662H192.823V132.251H185.196V134.662H186.317V133.26H188.392V139.822H187.046V140.832ZM202.302 141C204.097 141 205.443 140.327 205.443 138.644C205.443 135.447 200.675 136.401 200.675 134.382C200.675 133.597 201.404 133.148 202.582 133.148C203.087 133.148 203.648 133.204 204.04 133.316V134.55H205.162V132.587C204.433 132.363 203.48 132.138 202.526 132.138C200.731 132.138 199.441 132.924 199.441 134.494C199.441 137.579 204.209 136.569 204.209 138.757C204.209 139.654 203.367 140.047 202.19 140.047C201.517 140.047 200.844 139.934 200.451 139.822V138.588H199.329V140.607C200.171 140.776 201.292 141 202.302 141Z" fill="#384259"/>
<path d="M64.6669 140.832H68.2564V139.822H66.9665L67.6395 138.196H71.3412L72.0142 139.822H70.7242V140.832H74.3698V139.822H73.2481L70.1633 132.251H67.1347V133.26H68.3686L65.7326 139.822H64.6108V140.832H64.6669ZM68.0321 137.242L69.4903 133.541L70.9486 137.242H68.0321ZM80.4271 140.832H84.4653V139.822H82.9509V137.691H84.3531C86.4283 137.691 87.7743 136.625 87.7743 134.999C87.7743 133.316 86.4283 132.307 84.3531 132.307H80.4832V133.316H81.7731V139.878H80.4832V140.832H80.4271ZM82.8949 133.316H84.297C85.8113 133.316 86.4283 134.101 86.4283 135.055C86.4283 136.008 85.8113 136.794 84.297 136.794H82.8949V133.316ZM93.0464 140.832H96.6359V139.822H95.3459L96.019 138.196H99.7206L100.394 139.822H99.1037V140.832H102.749V139.822H101.628L98.5428 132.251H95.5142V133.26H96.7481L94.112 139.822H92.9903V140.832H93.0464ZM96.4116 137.242L97.8698 133.541L99.328 137.242H96.4116ZM108.807 140.832H112.564V139.822H111.33V137.523H113.181L114.976 140.776H116.995V139.766H115.817L114.359 137.186C115.537 136.85 116.266 136.008 116.266 134.831C116.266 133.204 114.92 132.194 112.845 132.194H108.863V133.204H110.153V139.766H108.863V140.832H108.807ZM111.33 136.625V133.316H112.845C114.359 133.316 114.976 134.045 114.976 134.999C114.976 135.952 114.359 136.681 112.845 136.681H111.33V136.625ZM124.959 140.832H128.885V139.822H127.539V133.26H129.614V134.662H130.736V132.251H123.108V134.662H124.23V133.26H126.305V139.822H124.959V140.832ZM137.13 140.832H140.663V139.822H139.486L139.71 133.428L142.514 140.215H143.524L146.328 133.428L146.552 139.822H145.375V140.832H148.908V139.822H147.73L147.45 133.26H148.684V132.251H145.543L143.019 138.588L140.495 132.251H137.354V133.26H138.532L138.308 139.822H137.13V140.832ZM155.526 140.832H162.481V138.364H161.303V139.822H157.994V137.018H161.527V136.008H157.994V133.26H161.303V134.662H162.425V132.251H155.47V133.26H156.76V139.822H155.47V140.832H155.526ZM169.323 140.832H173.025V139.822H171.791V134.045L176.558 140.832H177.68V133.26H178.914V132.251H175.212V133.26H176.446V138.813L171.847 132.251H169.323V133.26H170.613V139.822H169.323V140.832ZM187.046 140.832H190.972V139.822H189.626V133.26H191.702V134.662H192.823V132.251H185.196V134.662H186.317V133.26H188.392V139.822H187.046V140.832ZM202.302 141C204.097 141 205.443 140.327 205.443 138.644C205.443 135.447 200.675 136.401 200.675 134.382C200.675 133.597 201.404 133.148 202.582 133.148C203.087 133.148 203.648 133.204 204.04 133.316V134.55H205.162V132.587C204.433 132.363 203.48 132.138 202.526 132.138C200.731 132.138 199.441 132.924 199.441 134.494C199.441 137.579 204.209 136.569 204.209 138.757C204.209 139.654 203.367 140.047 202.19 140.047C201.517 140.047 200.844 139.934 200.451 139.822V138.588H199.329V140.607C200.171 140.776 201.292 141 202.302 141Z" fill="#384259"/>
<path d="M155.695 5.27208C168.202 5.55251 179.307 15.7041 181.214 28.4356C181.27 28.7721 181.27 29.1086 181.382 29.8377H186.374C186.374 29.1086 186.261 28.8842 186.261 28.6038C185.196 20.0788 181.438 12.8998 174.708 7.51551C165.117 -0.168258 154.292 -2.07518 142.851 2.46778C136.064 5.1599 130.175 9.87112 126.586 16.2649C124.399 20.0788 123.109 24.3413 122.548 28.6599C121.987 32.9785 122.38 37.241 122.267 41.5597C122.155 44.42 121.875 47.3926 120.585 50.0286C118.341 54.6277 114.471 57.8807 109.76 59.0585C104.712 60.3484 99.16 59.0024 95.1779 55.6933C91.1397 52.3282 89.2328 48.4021 89.2888 42.2888C89.3449 39.821 89.1767 37.3532 89.2328 34.8854C87.6063 34.8854 85.9237 34.8854 84.2972 34.8854C84.2972 43.6909 83.8485 48.4582 87.2698 54.179C91.364 61.0776 100.057 65.284 108.078 64.4427C112.789 63.9379 117.22 61.7506 120.585 58.4976C124.679 54.5155 127.427 49.636 127.315 43.1862C127.147 34.4928 126.81 25.9678 131.297 18.4523C134.775 12.6193 140.495 8.30072 147.001 6.44988C149.806 5.55251 152.778 5.1599 155.695 5.27208Z" fill="#384259"/>
<path d="M155.695 5.27208C168.202 5.55251 179.307 15.7041 181.214 28.4356C181.27 28.7721 181.27 29.1086 181.382 29.8377H186.374C186.374 29.1086 186.261 28.8842 186.261 28.6038C185.196 20.0788 181.438 12.8998 174.708 7.51551C165.117 -0.168258 154.292 -2.07518 142.851 2.46778C136.064 5.1599 130.175 9.87112 126.586 16.2649C124.399 20.0788 123.109 24.3413 122.548 28.6599C121.987 32.9785 122.38 37.241 122.267 41.5597C122.155 44.42 121.875 47.3926 120.585 50.0286C118.341 54.6277 114.471 57.8807 109.76 59.0585C104.712 60.3484 99.16 59.0024 95.1779 55.6933C91.1397 52.3282 89.2328 48.4021 89.2888 42.2888C89.3449 39.821 89.1767 37.3532 89.2328 34.8854C87.6063 34.8854 85.9237 34.8854 84.2972 34.8854C84.2972 43.6909 83.8485 48.4582 87.2698 54.179C91.364 61.0776 100.057 65.284 108.078 64.4427C112.789 63.9379 117.22 61.7506 120.585 58.4976C124.679 54.5155 127.427 49.636 127.315 43.1862C127.147 34.4928 126.81 25.9678 131.297 18.4523C134.775 12.6193 140.495 8.30072 147.001 6.44988C149.806 5.55251 152.778 5.1599 155.695 5.27208Z" fill="#384259"/>
<path d="M84.2411 0C84.1851 1.12172 84.1851 2.18735 84.1851 2.91647C84.1851 8.86157 84.1851 14.9749 84.1851 20.92C84.1851 23.8365 84.2411 27.0334 84.2411 30.006H89.2328C89.2328 21.9296 89.2328 9.25418 89.2328 0H84.2411Z" fill="#384259"/>
<path d="M84.2411 0C84.1851 1.12172 84.1851 2.18735 84.1851 2.91647C84.1851 8.86157 84.1851 14.9749 84.1851 20.92C84.1851 23.8365 84.2411 27.0334 84.2411 30.006H89.2328C89.2328 21.9296 89.2328 9.25418 89.2328 0H84.2411Z" fill="#384259"/>
<path d="M181.326 34.7172C179.195 53.3938 159.845 63.9941 144.029 57.432C140.832 56.086 136.345 53.2817 132.195 47.4487C131.69 50.4774 130.007 53.2256 130.007 53.2256C134.943 59.6755 143.748 62.9284 146.44 63.6576C149.581 64.4988 152.89 64.7793 156.143 64.4988C164.444 63.8258 172.689 60.5167 178.241 54.2912C182.167 49.8604 184.972 44.4201 186.093 38.1945C186.149 38.0263 186.654 34.7172 186.598 34.7172H181.326Z" fill="#384259"/>
<path d="M181.326 34.7172C179.195 53.3938 159.845 63.9941 144.029 57.432C140.832 56.086 136.345 53.2817 132.195 47.4487C131.69 50.4774 130.007 53.2256 130.007 53.2256C134.943 59.6755 143.748 62.9284 146.44 63.6576C149.581 64.4988 152.89 64.7793 156.143 64.4988C164.444 63.8258 172.689 60.5167 178.241 54.2912C182.167 49.8604 184.972 44.4201 186.093 38.1945C186.149 38.0263 186.654 34.7172 186.598 34.7172H181.326Z" fill="#384259"/>
</svg>
